<svg
    width="32"
    height="36"
    viewBox="0 0 32 36"
    fill="none"
    xmlns="http://www.w3.org/2000/svg">
    <path
        fill-rule="evenodd"
        clip-rule="evenodd"
        d="M7.99636 3.33166C10.0749 1.19843 12.894 0 15.8335 0C18.7729 0 21.592 1.19843 23.6706 3.33166C25.7491 5.46489 26.9168 8.35816 26.9168 11.375C26.9168 16.8231 28.0521 20.2063 29.0985 22.175C29.6238 23.1635 30.1353 23.8119 30.4907 24.1969C30.6688 24.3898 30.8087 24.5177 30.893 24.5898C30.9351 24.6258 30.9634 24.6479 30.9756 24.6573C30.9775 24.6587 30.979 24.6598 30.9801 24.6607C31.5477 25.0608 31.7989 25.7928 31.5989 26.4709C31.3967 27.1563 30.7812 27.625 30.0835 27.625H1.58346C0.885734 27.625 0.27025 27.1563 0.0680608 26.4709C-0.131982 25.7928 0.119197 25.0608 0.686798 24.6607C0.68791 24.6599 0.689421 24.6587 0.691323 24.6573C0.703514 24.6479 0.731782 24.6258 0.773933 24.5898C0.858192 24.5177 0.998133 24.3898 1.17622 24.1969C1.53156 23.8119 2.04311 23.1635 2.56846 22.175C3.61477 20.2063 4.75012 16.8231 4.75012 11.375C4.75012 8.35816 5.91783 5.46489 7.99636 3.33166ZM0.702803 24.6495C0.702928 24.6495 0.703052 24.6494 0.703177 24.6493C0.70317 24.6493 0.703163 24.6493 0.703157 24.6493L0.702803 24.6495ZM4.98655 24.375H26.6804C26.5599 24.1724 26.4389 23.958 26.3185 23.7313C24.9898 21.2312 23.7501 17.3019 23.7501 11.375C23.7501 9.22012 22.916 7.15349 21.4314 5.62976C19.9467 4.10602 17.9331 3.25 15.8335 3.25C13.7338 3.25 11.7202 4.10602 10.2355 5.62976C8.75086 7.15349 7.91679 9.22012 7.91679 11.375C7.91679 17.3019 6.67715 21.2312 5.34846 23.7313C5.22797 23.958 5.10702 24.1724 4.98655 24.375Z"
        fill="currentColor" />
    <path
        fill-rule="evenodd"
        clip-rule="evenodd"
        d="M12.2999 31.0944C13.0563 30.6441 14.0251 30.9083 14.4639 31.6846C14.6031 31.9309 14.8029 32.1353 15.0432 32.2774C15.2836 32.4195 15.5561 32.4943 15.8335 32.4943C16.1109 32.4943 16.3834 32.4195 16.6238 32.2774C16.8641 32.1353 17.0639 31.9309 17.2031 31.6846C17.6419 30.9083 18.6107 30.6441 19.3671 31.0944C20.1235 31.5447 20.381 32.5391 19.9423 33.3154C19.5247 34.0542 18.9254 34.6674 18.2043 35.0936C17.4832 35.5199 16.6657 35.7443 15.8335 35.7443C15.0014 35.7443 14.1838 35.5199 13.4627 35.0936C12.7416 34.6674 12.1423 34.0542 11.7248 33.3154C11.286 32.5391 11.5435 31.5447 12.2999 31.0944Z"
        fill="currentColor" />
</svg>