<svg width="39" height="34" viewBox="0 0 39 34" fill="none" xmlns="http://www.w3.org/2000/svg">
<path fill-rule="evenodd" clip-rule="evenodd" d="M23.5005 1.05154C24.7823 0.520411 26.1562 0.24704 27.5438 0.24704C28.9313 0.24704 30.3052 0.520411 31.587 1.05154C32.8686 1.58256 34.033 2.36085 35.0138 3.34194C35.9949 4.32271 36.7737 5.48768 37.3047 6.76927C37.8358 8.05109 38.1092 9.425 38.1092 10.8125C38.1092 12.2 37.8358 13.5739 37.3047 14.8557C36.7736 16.1375 35.9953 17.302 35.014 18.2828L20.649 32.6478C20.0144 33.2824 18.9856 33.2824 18.351 32.6478L3.98595 18.2828C2.0047 16.3016 0.891651 13.6144 0.891651 10.8125C0.891651 8.0106 2.0047 5.32345 3.98595 3.34221C5.9672 1.36096 8.65434 0.247909 11.4562 0.247909C14.2582 0.247909 16.9453 1.36096 18.9265 3.34221L19.5 3.91566L20.0732 3.34248C21.054 2.36126 22.2188 1.58261 23.5005 1.05154Z" fill="currentColor"/>
</svg>
