<svg
    width="52"
    height="52"
    viewBox="0 0 52 52"
    fill="none"
    xmlns="http://www.w3.org/2000/svg">
    <path
        fill-rule="evenodd"
        clip-rule="evenodd"
        d="M9.67301 33.5064C11.7047 31.4747 14.4602 30.3333 17.3333 30.3333H34.6667C37.5398 30.3333 40.2953 31.4747 42.327 33.5064C44.3586 35.538 45.5 38.2935 45.5 41.1667V45.5C45.5 46.6966 44.53 47.6667 43.3333 47.6667C42.1367 47.6667 41.1667 46.6966 41.1667 45.5V41.1667C41.1667 39.4428 40.4818 37.7895 39.2629 36.5705C38.0439 35.3515 36.3906 34.6667 34.6667 34.6667H17.3333C15.6094 34.6667 13.9561 35.3515 12.7371 36.5705C11.5182 37.7895 10.8333 39.4428 10.8333 41.1667V45.5C10.8333 46.6966 9.86328 47.6667 8.66667 47.6667C7.47005 47.6667 6.5 46.6966 6.5 45.5V41.1667C6.5 38.2935 7.64137 35.538 9.67301 33.5064Z"
        fill="#FAF4EF"
        stroke="#D8572A"
        stroke-linecap="round"
        stroke-linejoin="round" />
    <path
        fill-rule="evenodd"
        clip-rule="evenodd"
        d="M26.0001 8.66668C22.4102 8.66668 19.5001 11.5768 19.5001 15.1667C19.5001 18.7565 22.4102 21.6667 26.0001 21.6667C29.5899 21.6667 32.5001 18.7565 32.5001 15.1667C32.5001 11.5768 29.5899 8.66668 26.0001 8.66668ZM15.1667 15.1667C15.1667 9.18359 20.017 4.33334 26.0001 4.33334C31.9832 4.33334 36.8334 9.18359 36.8334 15.1667C36.8334 21.1498 31.9832 26 26.0001 26C20.017 26 15.1667 21.1498 15.1667 15.1667Z"
        fill="#FAF4EF"
        stroke="#D8572A"
        stroke-linecap="round"
        stroke-linejoin="round" />
</svg>