<svg
    width="315"
    height="71"
    viewBox="0 0 315 71"
    fill="none"
    xmlns="http://www.w3.org/2000/svg">
    <path
        d="M147.75 30.25V47.25H143.5V51.5H139.25V55.75H122.25V51.5H118V30.25H122.25V26H143.5V30.25H147.75ZM139.25 30.25H126.5V51.5H135V47.25H130.75V43H139.25V30.25ZM143.5 55.75V51.5H147.75V55.75H143.5ZM152 55.75V26H181.75V30.25H160.5V38.75H177.5V43H160.5V51.5H181.75V55.75H152ZM190.25 55.75V51.5H186V47.25H194.5V51.5H207.25V43H190.25V38.75H186V30.25H190.25V26H211.5V30.25H215.75V34.5H207.25V30.25H194.5V38.75H211.5V43H215.75V51.5H211.5V55.75H190.25ZM232.75 55.75V30.25H224.25V26H249.75V30.25H241.25V55.75H232.75ZM254 55.75V34.5H258.25V30.25H262.5V26H275.25V30.25H279.5V34.5H283.75V55.75H275.25V47.25H262.5V55.75H254ZM262.5 43H275.25V34.5H271V30.25H266.75V34.5H262.5V43Z"
        fill="currentColor" />
    <path
        d="M68.5344 46.8651C67.6881 43.2076 73.5067 42.5555 77.2169 42.8854C80.6669 43.1922 84.3207 46.8651 84.7153 47.6611C85.11 48.457 81.5581 46.8651 78.0062 46.8651C74.4543 46.8651 69.3749 50.4976 68.5344 46.8651Z"
        fill="currentColor" />
    <path
        d="M51.4656 46.8651C52.3119 43.2076 46.4933 42.5555 42.7831 42.8854C39.3331 43.1922 35.6793 46.8651 35.2847 47.6611C34.89 48.457 38.4419 46.8651 41.9938 46.8651C45.5457 46.8651 50.6251 50.4976 51.4656 46.8651Z"
        fill="currentColor" />
    <path
        d="M67.3505 40.4976C65.7718 39.3037 68.2156 36.9049 70.9024 36.5179C73.5891 36.1308 76.0329 36.5179 77.2169 36.9159C78.4008 37.3138 73.9794 38.244 72.0863 38.9057C69.8256 39.6958 68.9291 41.6915 67.3505 40.4976Z"
        fill="currentColor" />
    <path
        d="M52.6495 40.4976C54.2282 39.3037 51.7844 36.9049 49.0976 36.5179C46.4109 36.1308 43.9671 36.5179 42.7831 36.9159C41.5992 37.3138 46.0206 38.244 47.9137 38.9057C50.1744 39.6958 51.0709 41.6915 52.6495 40.4976Z"
        fill="currentColor" />
    <path
        d="M25.0236 24.5787C23.8396 16.2213 23.8396 3.88425 26.2076 3.08827C26.2076 3.08827 32.1274 9.85379 34.4954 13.8335C36.8633 17.8132 40.8099 29.3544 39.2312 26.9666C37.0202 23.6221 34.89 18.6092 34.1007 19.4051C33.3114 20.201 36.2266 25.2643 35.6793 25.3747C33.7061 25.7726 30.1542 20.997 29.7595 21.395C28.2567 22.9104 32.3307 26.5924 32.5221 27.3645C32.9168 28.9564 28.1809 25.3747 27.3916 25.7726C26.6023 26.1706 30.9435 30.9463 29.3649 30.5483C27.7862 30.1503 25.5173 27.8514 25.0236 24.5787Z"
        fill="currentColor" />
    <path
        d="M94.9764 24.5787C96.1604 16.2213 96.1604 3.88425 93.7924 3.08827C93.7924 3.08827 87.8726 9.85379 85.5046 13.8335C83.1367 17.8132 79.1901 29.3544 80.7688 26.9666C82.9798 23.6221 85.11 18.6092 85.8993 19.4051C86.6886 20.201 83.7734 25.2643 84.3207 25.3747C86.2939 25.7726 89.8458 20.997 90.2405 21.395C91.7433 22.9104 87.6693 26.5924 87.4779 27.3645C87.0832 28.9564 91.8191 25.3747 92.6084 25.7726C93.3977 26.1706 89.0565 30.9463 90.6351 30.5483C92.2138 30.1503 94.5601 27.3645 94.9764 24.5787Z"
        fill="currentColor" />
    <path
        d="M59.8086 52.4367C59.8086 52.4367 57.7801 50.8449 56.5961 52.4367C55.4121 54.0286 58.5694 56.8144 59.7533 57.2124C59.7533 57.2124 60.148 59.6002 59.3587 60.7941C58.1203 62.6673 56.0856 64.0013 54.2282 64.3759C59.497 67.3231 60.8715 67.365 65.7718 64.3759C63.9144 64.0013 61.8797 62.6673 60.6413 60.7941C59.852 59.6002 60.2467 57.2124 60.2467 57.2124C61.4306 56.8144 64.5879 54.0286 63.4039 52.4367C62.2199 50.8449 60.148 52.4367 60.148 52.4367H59.8086Z"
        fill="currentColor" />
    <path
        d="M27.3916 37.3137C27.3916 37.3137 26.2076 32.9361 25.0236 24.5787M25.0236 24.5787C23.8396 16.2213 23.8396 3.88425 26.2076 3.08827M25.0236 24.5787C25.5173 27.8514 27.7862 30.1503 29.3649 30.5483C30.9435 30.9463 26.6023 26.1706 27.3916 25.7726C28.1809 25.3747 32.9168 28.9564 32.5221 27.3645C32.3307 26.5924 28.2567 22.9104 29.7595 21.395C30.1542 20.997 33.7061 25.7726 35.6793 25.3747C36.2266 25.2643 33.3114 20.201 34.1007 19.4051C34.89 18.6092 37.0202 23.6221 39.2312 26.9666C40.8099 29.3544 36.8633 17.8132 34.4954 13.8335C32.1274 9.85379 26.2076 3.08827 26.2076 3.08827M26.2076 3.08827C28.5755 2.29228 34.4954 7.06799 37.6526 9.85379C40.8099 12.6396 46.335 18.6092 47.2178 21.198M49.0976 36.5179C51.7844 36.9049 54.2282 39.3037 52.6495 40.4976C51.0709 41.6915 50.1744 39.6958 47.9137 38.9057C46.0206 38.244 41.5992 37.3138 42.7831 36.9159C43.9671 36.5179 46.4109 36.1308 49.0976 36.5179ZM49.0976 36.5179C49.0976 36.5179 47.1244 32.9361 40.8099 31.7422M51.8602 37.3138C51.8602 37.3138 50.6763 32.1402 45.1511 28.5584M47.1244 55.6205C47.1244 55.6205 35.2847 46.8651 12 49.253M46.7297 56.8144C46.7297 56.8144 35.6793 51.6408 16.7359 56.0185M47.1244 58.0083C47.1244 58.0083 28.1809 57.2124 19.8931 63.182M54.2282 64.3759C45.9191 66.0517 40.0206 61.5901 40.0206 61.5901M54.2282 64.3759C56.0856 64.0013 58.1203 62.6673 59.3587 60.7941C60.148 59.6002 59.7533 57.2124 59.7533 57.2124C58.5694 56.8144 55.4121 54.0286 56.5961 52.4367C57.7801 50.8449 59.8086 52.4367 59.8086 52.4367H60.148C60.148 52.4367 62.2199 50.8449 63.4039 52.4367C64.5879 54.0286 61.4306 56.8144 60.2467 57.2124C60.2467 57.2124 59.852 59.6002 60.6413 60.7941C61.8797 62.6673 63.9144 64.0013 65.7718 64.3759M54.2282 64.3759C59.497 67.3231 60.8715 67.365 65.7718 64.3759M44.3618 36.5179C44.3618 36.5179 40.8099 33.3341 36.8633 33.7321M92.6084 37.3137C92.6084 37.3137 93.7924 32.9361 94.9764 24.5787M94.9764 24.5787C96.1604 16.2213 96.1604 3.88425 93.7924 3.08827M94.9764 24.5787C94.5601 27.3645 92.2138 30.1503 90.6351 30.5483C89.0565 30.9463 93.3977 26.1706 92.6084 25.7726C91.8191 25.3747 87.0832 28.9564 87.4779 27.3645C87.6693 26.5924 91.7433 22.9104 90.2405 21.395C89.8458 20.997 86.2939 25.7726 84.3207 25.3747C83.7734 25.2643 86.6886 20.201 85.8993 19.4051C85.11 18.6092 82.9798 23.6221 80.7688 26.9666C79.1901 29.3544 83.1367 17.8132 85.5046 13.8335C87.8726 9.85379 93.7924 3.08827 93.7924 3.08827M93.7924 3.08827C91.4245 2.29228 85.5046 7.06799 82.3474 9.85379C79.1901 12.6396 73.665 18.6092 72.7822 21.198M70.9024 36.5179C68.2156 36.9049 65.7718 39.3037 67.3505 40.4976C68.9291 41.6915 69.8256 39.6958 72.0863 38.9057C73.9794 38.244 78.4008 37.3138 77.2169 36.9159C76.0329 36.5179 73.5891 36.1308 70.9024 36.5179ZM70.9024 36.5179C70.9024 36.5179 72.8756 32.9361 79.1901 31.7422M68.1398 37.3138C68.1398 37.3138 69.3237 32.1402 74.8489 28.5584M72.8756 55.6205C72.8756 55.6205 84.7153 46.8651 108 49.253M73.2703 56.8144C73.2703 56.8144 84.3207 51.6408 103.264 56.0185M72.8756 58.0083C72.8756 58.0083 91.8191 57.2124 100.107 63.182M65.7718 64.3759C74.0809 66.0517 79.9794 61.5901 79.9794 61.5901M75.6382 36.5179C75.6382 36.5179 79.1901 33.3341 83.1367 33.7321M51.4656 46.8651C52.3119 43.2076 46.4933 42.5555 42.7831 42.8854C39.3331 43.1922 35.6793 46.8651 35.2847 47.6611C34.89 48.457 38.4419 46.8651 41.9938 46.8651C45.5457 46.8651 50.6251 50.4976 51.4656 46.8651ZM68.5344 46.8651C67.6881 43.2076 73.5067 42.5555 77.2169 42.8854C80.6669 43.1922 84.3207 46.8651 84.7153 47.6611C85.11 48.457 81.5581 46.8651 78.0062 46.8651C74.4543 46.8651 69.3749 50.4976 68.5344 46.8651Z"
        stroke="currentColor"
        stroke-linecap="round" />
</svg>