<svg
    width="119"
    height="71"
    viewBox="0 0 119 71"
    fill="none"
    xmlns="http://www.w3.org/2000/svg">
    <path
        d="M 68.5 46.9 C 67.7 43.2 73.5 42.6 77.2 42.9 C 80.7 43.2 84.3 46.9 84.7 47.7 C 85.1 48.5 81.6 46.9 78 46.9 C 74.5 46.9 69.4 50.5 68.5 46.9 Z"
        fill="currentColor" />
    <path
        d="M 51.5 46.9 C 52.3 43.2 46.5 42.6 42.8 42.9 C 39.3 43.2 35.7 46.9 35.3 47.7 C 34.9 48.5 38.4 46.9 42 46.9 C 45.5 46.9 50.6 50.5 51.5 46.9 Z"
        fill="currentColor" />
    <path
        d="M 67.4 40.5 C 65.8 39.3 68.2 36.9 70.9 36.5 C 73.6 36.1 76 36.5 77.2 36.9 C 78.4 37.3 74 38.2 72.1 38.9 C 69.8 39.7 68.9 41.7 67.4 40.5 Z"
        fill="currentColor" />
    <path
        d="M 52.6 40.5 C 54.2 39.3 51.8 36.9 49.1 36.5 C 46.4 36.1 44 36.5 42.8 36.9 C 41.6 37.3 46 38.2 47.9 38.9 C 50.2 39.7 51.1 41.7 52.6 40.5 Z"
        fill="currentColor" />
    <path
        d="M 25 24.6 C 23.8 16.2 23.8 3.9 26.2 3.1 C 26.2 3.1 32.1 9.9 34.5 13.8 C 36.9 17.8 40.8 29.4 39.2 27 C 37 23.6 34.9 18.6 34.1 19.4 C 33.3 20.2 36.2 25.3 35.7 25.4 C 33.7 25.8 30.2 21 29.8 21.4 C 28.3 22.9 32.3 26.6 32.5 27.4 C 32.9 29 28.2 25.4 27.4 25.8 C 26.6 26.2 30.9 30.9 29.4 30.5 C 27.8 30.2 25.5 27.9 25 24.6 Z"
        fill="currentColor" />
    <path
        d="M 95 24.6 C 96.2 16.2 96.2 3.9 93.8 3.1 C 93.8 3.1 87.9 9.9 85.5 13.8 C 83.1 17.8 79.2 29.4 80.8 27 C 83 23.6 85.1 18.6 85.9 19.4 C 86.7 20.2 83.8 25.3 84.3 25.4 C 86.3 25.8 89.8 21 90.2 21.4 C 91.7 22.9 87.7 26.6 87.5 27.4 C 87.1 29 91.8 25.4 92.6 25.8 C 93.4 26.2 89.1 30.9 90.6 30.5 C 92.2 30.2 94.6 27.4 95 24.6 Z"
        fill="currentColor" />
    <path
        d="M 59.8 52.4 C 59.8 52.4 57.8 50.8 56.6 52.4 C 55.4 54 58.6 56.8 59.8 57.2 C 59.8 57.2 60.1 59.6 59.4 60.8 C 58.1 62.7 56.1 64 54.2 64.4 C 59.5 67.3 60.9 67.4 65.8 64.4 C 63.9 64 61.9 62.7 60.6 60.8 C 59.9 59.6 60.2 57.2 60.2 57.2 C 61.4 56.8 64.6 54 63.4 52.4 C 62.2 50.8 60.1 52.4 60.1 52.4 H 59.8 Z"
        fill="currentColor" />
    <path stroke="currentColor" stroke-linecap="round"
        d="M 27.4 37.3 C 27.4 37.3 26.2 32.9 25 24.6 M 25 24.6 C 23.8 16.2 23.8 3.9 26.2 3.1 M 25 24.6 C 25.5 27.9 27.8 30.2 29.4 30.5 C 30.9 30.9 26.6 26.2 27.4 25.8 C 28.2 25.4 32.9 29 32.5 27.4 C 32.3 26.6 28.3 22.9 29.8 21.4 C 30.2 21 33.7 25.8 35.7 25.4 C 36.2 25.3 33.3 20.2 34.1 19.4 C 34.9 18.6 37 23.6 39.2 27 C 40.8 29.4 36.9 17.8 34.5 13.8 C 32.1 9.9 26.2 3.1 26.2 3.1 M 26.2 3.1 C 28.6 2.3 34.5 7.1 37.7 9.9 C 40.8 12.6 46.3 18.6 47.2 21.2 M 49.1 36.5 C 51.8 36.9 54.2 39.3 52.6 40.5 C 51.1 41.7 50.2 39.7 47.9 38.9 C 46 38.2 41.6 37.3 42.8 36.9 C 44 36.5 46.4 36.1 49.1 36.5 Z M 49.1 36.5 C 49.1 36.5 47.1 32.9 40.8 31.7 M 51.9 37.3 C 51.9 37.3 50.7 32.1 45.2 28.6 M 47.1 55.6 C 47.1 55.6 35.3 46.9 12 49.3 M 46.7 56.8 C 46.7 56.8 35.7 51.6 16.7 56 M 47.1 58 C 47.1 58 28.2 57.2 19.9 63.2 M 54.2 64.4 C 45.9 66.1 40 61.6 40 61.6 M 54.2 64.4 C 56.1 64 58.1 62.7 59.4 60.8 C 60.1 59.6 59.8 57.2 59.8 57.2 C 58.6 56.8 55.4 54 56.6 52.4 C 57.8 50.8 59.8 52.4 59.8 52.4 H 60.1 C 60.1 52.4 62.2 50.8 63.4 52.4 C 64.6 54 61.4 56.8 60.2 57.2 C 60.2 57.2 59.9 59.6 60.6 60.8 C 61.9 62.7 63.9 64 65.8 64.4 M 54.2 64.4 C 59.5 67.3 60.9 67.4 65.8 64.4 M 44.4 36.5 C 44.4 36.5 40.8 33.3 36.9 33.7 M 92.6 37.3 C 92.6 37.3 93.8 32.9 95 24.6 M 95 24.6 C 96.2 16.2 96.2 3.9 93.8 3.1 M 95 24.6 C 94.6 27.4 92.2 30.2 90.6 30.5 C 89.1 30.9 93.4 26.2 92.6 25.8 C 91.8 25.4 87.1 29 87.5 27.4 C 87.7 26.6 91.7 22.9 90.2 21.4 C 89.8 21 86.3 25.8 84.3 25.4 C 83.8 25.3 86.7 20.2 85.9 19.4 C 85.1 18.6 83 23.6 80.8 27 C 79.2 29.4 83.1 17.8 85.5 13.8 C 87.9 9.9 93.8 3.1 93.8 3.1 M 93.8 3.1 C 91.4 2.3 85.5 7.1 82.3 9.9 C 79.2 12.6 73.7 18.6 72.8 21.2 M 70.9 36.5 C 68.2 36.9 65.8 39.3 67.4 40.5 C 68.9 41.7 69.8 39.7 72.1 38.9 C 74 38.2 78.4 37.3 77.2 36.9 C 76 36.5 73.6 36.1 70.9 36.5 Z M 70.9 36.5 C 70.9 36.5 72.9 32.9 79.2 31.7 M 68.1 37.3 C 68.1 37.3 69.3 32.1 74.8 28.6 M 72.9 55.6 C 72.9 55.6 84.7 46.9 108 49.3 M 73.3 56.8 C 73.3 56.8 84.3 51.6 103.3 56 M 72.9 58 C 72.9 58 91.8 57.2 100.1 63.2 M 65.8 64.4 C 74.1 66.1 80 61.6 80 61.6 M 75.6 36.5 C 75.6 36.5 79.2 33.3 83.1 33.7 M 51.5 46.9 C 52.3 43.2 46.5 42.6 42.8 42.9 C 39.3 43.2 35.7 46.9 35.3 47.7 C 34.9 48.5 38.4 46.9 42 46.9 C 45.5 46.9 50.6 50.5 51.5 46.9 Z M 68.5 46.9 C 67.7 43.2 73.5 42.6 77.2 42.9 C 80.7 43.2 84.3 46.9 84.7 47.7 C 85.1 48.5 81.6 46.9 78 46.9 C 74.5 46.9 69.4 50.5 68.5 46.9 Z"
        />
</svg>